<mxfile host="65bd71144e">
    <diagram id="VQ5N5fh5H-ArX9WsjE1C" name="Page-1">
        <mxGraphModel dx="2239" dy="1452" grid="1" gridSize="10" guides="1" tooltips="1" connect="1" arrows="1" fold="1" page="1" pageScale="1" pageWidth="1169" pageHeight="827" background="#000000" math="0" shadow="0">
            <root>
                <mxCell id="0"/>
                <mxCell id="1" parent="0"/>
                <mxCell id="59" value="AWS Cloud" style="outlineConnect=0;gradientColor=default;html=1;whiteSpace=wrap;fontSize=14;fontStyle=1;shape=mxgraph.aws4.group;grIcon=mxgraph.aws4.group_aws_cloud;strokeColor=#AAB7B8;fillColor=none;verticalAlign=top;align=left;spacingLeft=30;fontColor=#FFFFFF;dashed=0;gradientDirection=east;" parent="1" vertex="1">
                    <mxGeometry x="1140" y="840" width="920" height="600" as="geometry"/>
                </mxCell>
                <mxCell id="91" value="use SSL Cettificate" style="edgeStyle=orthogonalEdgeStyle;sketch=1;html=1;dashed=1;fontSize=14;fontColor=#FFFFFF;labelBackgroundColor=none;fontStyle=1;strokeWidth=4;fillColor=#647687;strokeColor=#314354;" parent="1" source="3" target="90" edge="1">
                    <mxGeometry relative="1" as="geometry">
                        <Array as="points">
                            <mxPoint x="1500" y="1070"/>
                            <mxPoint x="1500" y="1070"/>
                        </Array>
                        <mxPoint as="offset"/>
                    </mxGeometry>
                </mxCell>
                <mxCell id="82" style="edgeStyle=orthogonalEdgeStyle;sketch=1;html=1;entryX=0;entryY=0.5;entryDx=0;entryDy=0;entryPerimeter=0;dashed=1;fontColor=#FFFFFF;labelBackgroundColor=none;fontStyle=1;fontSize=14;strokeWidth=4;fillColor=#647687;strokeColor=#314354;" parent="1" source="87" target="3" edge="1">
                    <mxGeometry relative="1" as="geometry">
                        <mxPoint x="1100" y="1000.047619047619" as="sourcePoint"/>
                        <Array as="points">
                            <mxPoint x="1020" y="1000"/>
                            <mxPoint x="1020" y="1229"/>
                        </Array>
                    </mxGeometry>
                </mxCell>
                <mxCell id="83" value="https://&amp;lt;env&amp;gt;.paulserban.eu/&amp;lt;project-name&amp;gt;/apps&lt;br style=&quot;font-size: 14px;&quot;&gt;https://&amp;lt;env&amp;gt;.paulserban.eu/&amp;lt;project-name&amp;gt;/storybook" style="edgeLabel;html=1;align=left;verticalAlign=middle;resizable=0;points=[];fontColor=#FFFFFF;fontSize=14;labelBackgroundColor=none;fontStyle=1" parent="82" vertex="1" connectable="0">
                    <mxGeometry x="-0.3289" y="-1" relative="1" as="geometry">
                        <mxPoint x="-209" y="43" as="offset"/>
                    </mxGeometry>
                </mxCell>
                <mxCell id="80" style="edgeStyle=orthogonalEdgeStyle;sketch=1;html=1;dashed=1;fontColor=#FFFFFF;labelBackgroundColor=none;fontStyle=1;fontSize=14;strokeWidth=4;fillColor=#647687;strokeColor=#314354;" parent="1" source="87" target="63" edge="1">
                    <mxGeometry relative="1" as="geometry">
                        <mxPoint x="1100" y="1000.047619047619" as="sourcePoint"/>
                        <Array as="points">
                            <mxPoint x="850" y="1000"/>
                            <mxPoint x="850" y="1000"/>
                        </Array>
                    </mxGeometry>
                </mxCell>
                <mxCell id="81" value="DNS Query &amp;amp; Response" style="edgeLabel;html=1;align=center;verticalAlign=middle;resizable=0;points=[];fontColor=#FFFFFF;fontSize=14;labelBackgroundColor=none;fontStyle=1" parent="80" vertex="1" connectable="0">
                    <mxGeometry x="-0.1757" y="3" relative="1" as="geometry">
                        <mxPoint x="13" y="2" as="offset"/>
                    </mxGeometry>
                </mxCell>
                <mxCell id="60" value="AWS Account" style="points=[[0,0],[0.25,0],[0.5,0],[0.75,0],[1,0],[1,0.25],[1,0.5],[1,0.75],[1,1],[0.75,1],[0.5,1],[0.25,1],[0,1],[0,0.75],[0,0.5],[0,0.25]];outlineConnect=0;gradientColor=none;html=1;whiteSpace=wrap;fontSize=14;fontStyle=1;container=1;pointerEvents=0;collapsible=0;recursiveResize=0;shape=mxgraph.aws4.group;grIcon=mxgraph.aws4.group_account;strokeColor=#CD2264;fillColor=none;verticalAlign=top;align=left;spacingLeft=30;fontColor=#FFFFFF;dashed=0;labelBackgroundColor=none;" parent="1" vertex="1">
                    <mxGeometry x="1180" y="880" width="840" height="520" as="geometry"/>
                </mxCell>
                <mxCell id="61" value="Region" style="points=[[0,0],[0.25,0],[0.5,0],[0.75,0],[1,0],[1,0.25],[1,0.5],[1,0.75],[1,1],[0.75,1],[0.5,1],[0.25,1],[0,1],[0,0.75],[0,0.5],[0,0.25]];outlineConnect=0;gradientColor=none;html=1;whiteSpace=wrap;fontSize=14;fontStyle=1;container=1;pointerEvents=0;collapsible=0;recursiveResize=0;shape=mxgraph.aws4.group;grIcon=mxgraph.aws4.group_region;strokeColor=#147EBA;fillColor=none;verticalAlign=top;align=left;spacingLeft=30;fontColor=#FFFFFF;dashed=1;labelBackgroundColor=none;strokeWidth=3;" parent="60" vertex="1">
                    <mxGeometry x="40" y="40" width="760" height="440" as="geometry"/>
                </mxCell>
                <mxCell id="3" value="&lt;font style=&quot;font-size: 14px;&quot;&gt;CloudFront&lt;/font&gt;" style="sketch=0;points=[[0,0,0],[0.25,0,0],[0.5,0,0],[0.75,0,0],[1,0,0],[0,1,0],[0.25,1,0],[0.5,1,0],[0.75,1,0],[1,1,0],[0,0.25,0],[0,0.5,0],[0,0.75,0],[1,0.25,0],[1,0.5,0],[1,0.75,0]];outlineConnect=0;fontColor=#FFFFFF;gradientColor=#945DF2;gradientDirection=north;fillColor=#5A30B5;strokeColor=#ffffff;dashed=0;verticalLabelPosition=bottom;verticalAlign=top;align=center;html=1;fontSize=14;fontStyle=1;aspect=fixed;shape=mxgraph.aws4.resourceIcon;resIcon=mxgraph.aws4.cloudfront;labelBackgroundColor=none;" parent="61" vertex="1">
                    <mxGeometry x="240" y="270" width="78" height="78" as="geometry"/>
                </mxCell>
                <mxCell id="62" value="&lt;font style=&quot;font-size: 14px;&quot;&gt;AWS S3&lt;br style=&quot;font-size: 14px;&quot;&gt;develop.&amp;lt;project-name&amp;gt;&lt;br style=&quot;font-size: 14px;&quot;&gt;test.&amp;lt;&lt;/font&gt;&lt;span style=&quot;font-size: 14px;&quot;&gt;project-name&lt;/span&gt;&lt;font style=&quot;font-size: 14px;&quot;&gt;&amp;gt;&lt;br style=&quot;font-size: 14px;&quot;&gt;stage.&amp;lt;&lt;/font&gt;&lt;span style=&quot;font-size: 14px;&quot;&gt;project-name&lt;/span&gt;&lt;font style=&quot;font-size: 14px;&quot;&gt;&amp;gt;&lt;br style=&quot;font-size: 14px;&quot;&gt;prod.&amp;lt;&lt;/font&gt;&lt;span style=&quot;font-size: 14px;&quot;&gt;project-name&lt;/span&gt;&lt;font style=&quot;font-size: 14px;&quot;&gt;e&amp;gt;&lt;br style=&quot;font-size: 14px;&quot;&gt;&lt;/font&gt;" style="sketch=0;points=[[0,0,0],[0.25,0,0],[0.5,0,0],[0.75,0,0],[1,0,0],[0,1,0],[0.25,1,0],[0.5,1,0],[0.75,1,0],[1,1,0],[0,0.25,0],[0,0.5,0],[0,0.75,0],[1,0.25,0],[1,0.5,0],[1,0.75,0]];outlineConnect=0;fontColor=#FFFFFF;gradientColor=#60A337;gradientDirection=north;fillColor=#277116;strokeColor=#ffffff;dashed=0;verticalLabelPosition=bottom;verticalAlign=top;align=center;html=1;fontSize=14;fontStyle=1;aspect=fixed;shape=mxgraph.aws4.resourceIcon;resIcon=mxgraph.aws4.s3;labelBackgroundColor=none;" parent="61" vertex="1">
                    <mxGeometry x="610" y="270" width="78" height="78" as="geometry"/>
                </mxCell>
                <mxCell id="84" style="edgeStyle=orthogonalEdgeStyle;sketch=1;html=1;dashed=1;fontColor=#FFFFFF;labelBackgroundColor=none;fontStyle=1;fontSize=14;strokeWidth=4;fillColor=#647687;strokeColor=#314354;" parent="61" source="3" target="62" edge="1">
                    <mxGeometry relative="1" as="geometry"/>
                </mxCell>
                <mxCell id="89" value="Origin Access Identity" style="edgeLabel;html=1;align=center;verticalAlign=middle;resizable=0;points=[];fontColor=#FFFFFF;fontSize=14;labelBackgroundColor=none;fontStyle=1" parent="84" vertex="1" connectable="0">
                    <mxGeometry x="-0.2128" relative="1" as="geometry">
                        <mxPoint x="27" as="offset"/>
                    </mxGeometry>
                </mxCell>
                <mxCell id="63" value="&lt;font style=&quot;font-size: 14px;&quot;&gt;Route 53&lt;br style=&quot;font-size: 14px;&quot;&gt;paulserban.eu&lt;br style=&quot;font-size: 14px;&quot;&gt;&lt;/font&gt;" style="sketch=0;points=[[0,0,0],[0.25,0,0],[0.5,0,0],[0.75,0,0],[1,0,0],[0,1,0],[0.25,1,0],[0.5,1,0],[0.75,1,0],[1,1,0],[0,0.25,0],[0,0.5,0],[0,0.75,0],[1,0.25,0],[1,0.5,0],[1,0.75,0]];outlineConnect=0;fontColor=#FFFFFF;gradientColor=#945DF2;gradientDirection=north;fillColor=#5A30B5;strokeColor=#ffffff;dashed=0;verticalLabelPosition=bottom;verticalAlign=top;align=center;html=1;fontSize=14;fontStyle=1;aspect=fixed;shape=mxgraph.aws4.resourceIcon;resIcon=mxgraph.aws4.route_53;labelBackgroundColor=none;" parent="1" vertex="1">
                    <mxGeometry x="1300" y="960" width="78" height="78" as="geometry"/>
                </mxCell>
                <mxCell id="73" style="edgeStyle=orthogonalEdgeStyle;html=1;fontColor=#FFFFFF;dashed=1;sketch=1;curveFitting=1;jiggle=2;startArrow=none;labelBackgroundColor=none;strokeWidth=4;fillColor=#647687;strokeColor=#314354;" parent="1" source="64" target="59" edge="1">
                    <mxGeometry relative="1" as="geometry"/>
                </mxCell>
                <mxCell id="76" value="&lt;font style=&quot;font-size: 16px;&quot;&gt;1. Publish NEW Content&lt;br&gt;2. Invalidate cache&lt;/font&gt;" style="edgeLabel;html=1;align=center;verticalAlign=middle;resizable=0;points=[];fontColor=#FFFFFF;labelBackgroundColor=none;" parent="73" vertex="1" connectable="0">
                    <mxGeometry x="0.1216" y="2" relative="1" as="geometry">
                        <mxPoint as="offset"/>
                    </mxGeometry>
                </mxCell>
                <mxCell id="87" value="&lt;font style=&quot;font-size: 14px;&quot;&gt;End User&lt;/font&gt;" style="sketch=0;points=[[0,0,0],[0.25,0,0],[0.5,0,0],[0.75,0,0],[1,0,0],[0,1,0],[0.25,1,0],[0.5,1,0],[0.75,1,0],[1,1,0],[0,0.25,0],[0,0.5,0],[0,0.75,0],[1,0.25,0],[1,0.5,0],[1,0.75,0]];outlineConnect=0;fontColor=#FFFFFF;gradientColor=#4AB29A;gradientDirection=north;fillColor=#116D5B;strokeColor=#ffffff;dashed=0;verticalLabelPosition=bottom;verticalAlign=top;align=center;html=1;fontSize=14;fontStyle=1;aspect=fixed;shape=mxgraph.aws4.resourceIcon;resIcon=mxgraph.aws4.desktop_and_app_streaming;labelBackgroundColor=none;" parent="1" vertex="1">
                    <mxGeometry x="720" y="960" width="78" height="78" as="geometry"/>
                </mxCell>
                <mxCell id="90" value="&lt;font style=&quot;font-size: 14px;&quot;&gt;Certificate Manager&lt;/font&gt;" style="sketch=0;points=[[0,0,0],[0.25,0,0],[0.5,0,0],[0.75,0,0],[1,0,0],[0,1,0],[0.25,1,0],[0.5,1,0],[0.75,1,0],[1,1,0],[0,0.25,0],[0,0.5,0],[0,0.75,0],[1,0.25,0],[1,0.5,0],[1,0.75,0]];outlineConnect=0;fontColor=#FFFFFF;gradientColor=#F54749;gradientDirection=north;fillColor=#C7131F;strokeColor=#ffffff;dashed=0;verticalLabelPosition=bottom;verticalAlign=top;align=center;html=1;fontSize=14;fontStyle=1;aspect=fixed;shape=mxgraph.aws4.resourceIcon;resIcon=mxgraph.aws4.certificate_manager_3;labelBackgroundColor=none;" parent="1" vertex="1">
                    <mxGeometry x="1460" y="960" width="78" height="78" as="geometry"/>
                </mxCell>
                <mxCell id="95" value="GitHub" style="swimlane;startSize=0;sketch=0;fontSize=16;gradientDirection=east;labelBackgroundColor=none;fontStyle=1;strokeWidth=4;fillColor=#647687;strokeColor=#314354;fontColor=#ffffff;" parent="1" vertex="1">
                    <mxGeometry x="1210" y="70" width="790" height="550" as="geometry">
                        <mxRectangle x="1080" y="70" width="50" height="40" as="alternateBounds"/>
                    </mxGeometry>
                </mxCell>
                <mxCell id="97" style="edgeStyle=orthogonalEdgeStyle;html=1;entryX=0;entryY=0.5;entryDx=0;entryDy=0;fontSize=16;curved=1;sketch=1;curveFitting=1;jiggle=2;fontColor=#FFFFFF;labelBackgroundColor=none;fontStyle=1;fillColor=#647687;strokeColor=#314354;strokeWidth=4;" parent="95" source="5" target="8" edge="1">
                    <mxGeometry relative="1" as="geometry"/>
                </mxCell>
                <mxCell id="99" style="edgeStyle=orthogonalEdgeStyle;curved=1;sketch=1;html=1;fontSize=16;fontColor=#FFFFFF;labelBackgroundColor=none;fontStyle=1;fillColor=#647687;strokeColor=#314354;strokeWidth=4;" parent="95" target="18" edge="1">
                    <mxGeometry relative="1" as="geometry">
                        <mxPoint x="140" y="208.13" as="sourcePoint"/>
                    </mxGeometry>
                </mxCell>
                <mxCell id="5" value="main" style="ellipse;whiteSpace=wrap;html=1;sketch=1;curveFitting=1;jiggle=2;labelBackgroundColor=none;fontSize=16;fontStyle=1;fillColor=#647687;strokeColor=#314354;strokeWidth=4;fontColor=#ffffff;" parent="95" vertex="1">
                    <mxGeometry x="60" y="168.13" width="80" height="80" as="geometry"/>
                </mxCell>
                <mxCell id="8" value="develop" style="ellipse;whiteSpace=wrap;html=1;sketch=1;curveFitting=1;jiggle=2;labelBackgroundColor=none;fontSize=16;fontStyle=1;fillColor=#647687;strokeColor=#314354;strokeWidth=4;fontColor=#ffffff;" parent="95" vertex="1">
                    <mxGeometry x="140" y="282.88" width="80" height="80" as="geometry"/>
                </mxCell>
                <mxCell id="10" value="feature / bugfix" style="ellipse;whiteSpace=wrap;html=1;sketch=1;curveFitting=1;jiggle=2;labelBackgroundColor=none;fontSize=16;fontStyle=1;fillColor=#647687;strokeColor=#314354;strokeWidth=4;fontColor=#ffffff;" parent="95" vertex="1">
                    <mxGeometry x="220" y="421.88" width="80" height="80" as="geometry"/>
                </mxCell>
                <mxCell id="11" style="edgeStyle=orthogonalEdgeStyle;curved=1;html=1;entryX=0;entryY=0.5;entryDx=0;entryDy=0;sketch=1;curveFitting=1;jiggle=2;fontColor=#FFFFFF;labelBackgroundColor=none;fontSize=16;fontStyle=1;fillColor=#647687;strokeColor=#314354;strokeWidth=4;" parent="95" source="8" target="10" edge="1">
                    <mxGeometry relative="1" as="geometry"/>
                </mxCell>
                <mxCell id="98" style="edgeStyle=orthogonalEdgeStyle;curved=1;sketch=1;html=1;fontSize=16;exitX=1;exitY=0.5;exitDx=0;exitDy=0;fontColor=#FFFFFF;labelBackgroundColor=none;fontStyle=1;fillColor=#647687;strokeColor=#314354;strokeWidth=4;" parent="95" source="12" target="18" edge="1">
                    <mxGeometry relative="1" as="geometry"/>
                </mxCell>
                <mxCell id="12" value="develop" style="ellipse;whiteSpace=wrap;html=1;sketch=1;curveFitting=1;jiggle=2;labelBackgroundColor=none;fontSize=16;fontStyle=1;fillColor=#647687;strokeColor=#314354;strokeWidth=4;fontColor=#ffffff;" parent="95" vertex="1">
                    <mxGeometry x="300" y="282.88" width="80" height="80" as="geometry"/>
                </mxCell>
                <mxCell id="21" style="edgeStyle=orthogonalEdgeStyle;curved=1;html=1;sketch=1;curveFitting=1;jiggle=2;fontColor=#FFFFFF;labelBackgroundColor=none;fontSize=16;fontStyle=1;fillColor=#647687;strokeColor=#314354;strokeWidth=4;" parent="95" source="8" target="12" edge="1">
                    <mxGeometry relative="1" as="geometry"/>
                </mxCell>
                <mxCell id="13" style="edgeStyle=orthogonalEdgeStyle;curved=1;html=1;exitX=1;exitY=0.5;exitDx=0;exitDy=0;sketch=1;curveFitting=1;jiggle=2;fontColor=#FFFFFF;labelBackgroundColor=none;fontSize=16;fontStyle=1;fillColor=#647687;strokeColor=#314354;strokeWidth=4;" parent="95" source="10" target="12" edge="1">
                    <mxGeometry relative="1" as="geometry">
                        <Array as="points">
                            <mxPoint x="340" y="461.88"/>
                        </Array>
                    </mxGeometry>
                </mxCell>
                <mxCell id="101" style="edgeStyle=orthogonalEdgeStyle;curved=1;sketch=1;html=1;entryX=0;entryY=0.5;entryDx=0;entryDy=0;fontSize=16;fontColor=#FFFFFF;labelBackgroundColor=none;fontStyle=1;fillColor=#647687;strokeColor=#314354;strokeWidth=4;" parent="95" source="15" target="68" edge="1">
                    <mxGeometry relative="1" as="geometry"/>
                </mxCell>
                <mxCell id="15" value="release" style="ellipse;whiteSpace=wrap;html=1;sketch=1;curveFitting=1;jiggle=2;labelBackgroundColor=none;fontSize=16;fontStyle=1;fillColor=#647687;strokeColor=#314354;strokeWidth=4;fontColor=#ffffff;" parent="95" vertex="1">
                    <mxGeometry x="380" y="48.129999999999995" width="80" height="80" as="geometry"/>
                </mxCell>
                <mxCell id="96" style="edgeStyle=none;html=1;fontSize=16;dashed=1;sketch=1;curveFitting=1;jiggle=2;fontColor=#FFFFFF;labelBackgroundColor=none;fontStyle=1;fillColor=#647687;strokeColor=#314354;strokeWidth=4;" parent="95" source="18" target="67" edge="1">
                    <mxGeometry relative="1" as="geometry"/>
                </mxCell>
                <mxCell id="100" style="edgeStyle=orthogonalEdgeStyle;curved=1;sketch=1;html=1;fontSize=16;fontColor=#FFFFFF;labelBackgroundColor=none;fontStyle=1;fillColor=#647687;strokeColor=#314354;strokeWidth=4;" parent="95" source="18" target="15" edge="1">
                    <mxGeometry relative="1" as="geometry"/>
                </mxCell>
                <mxCell id="18" value="main" style="ellipse;whiteSpace=wrap;html=1;sketch=1;curveFitting=1;jiggle=2;labelBackgroundColor=none;fontSize=16;fontStyle=1;fillColor=#647687;strokeColor=#314354;strokeWidth=4;fontColor=#ffffff;" parent="95" vertex="1">
                    <mxGeometry x="380" y="168.13" width="80" height="80" as="geometry"/>
                </mxCell>
                <mxCell id="65" value="DEV" style="whiteSpace=wrap;html=1;sketch=1;curveFitting=1;jiggle=2;labelBackgroundColor=none;fontSize=16;fontStyle=1;fillColor=#647687;strokeColor=#314354;strokeWidth=4;fontColor=#ffffff;" parent="95" vertex="1">
                    <mxGeometry x="610" y="431.88" width="120" height="60" as="geometry"/>
                </mxCell>
                <mxCell id="24" style="edgeStyle=orthogonalEdgeStyle;curved=1;html=1;dashed=1;sketch=1;curveFitting=1;jiggle=2;fontColor=#FFFFFF;labelBackgroundColor=none;fontSize=16;fontStyle=1;fillColor=#647687;strokeColor=#314354;strokeWidth=4;" parent="95" source="10" target="65" edge="1">
                    <mxGeometry relative="1" as="geometry">
                        <mxPoint x="610" y="460.88" as="targetPoint"/>
                    </mxGeometry>
                </mxCell>
                <mxCell id="66" value="TEST" style="whiteSpace=wrap;html=1;sketch=1;curveFitting=1;jiggle=2;labelBackgroundColor=none;fontSize=16;fontStyle=1;fillColor=#647687;strokeColor=#314354;strokeWidth=4;fontColor=#ffffff;" parent="95" vertex="1">
                    <mxGeometry x="610" y="292.88" width="120" height="60" as="geometry"/>
                </mxCell>
                <mxCell id="25" style="edgeStyle=orthogonalEdgeStyle;curved=1;html=1;dashed=1;sketch=1;curveFitting=1;jiggle=2;fontColor=#FFFFFF;labelBackgroundColor=none;fontSize=16;fontStyle=1;fillColor=#647687;strokeColor=#314354;strokeWidth=4;" parent="95" source="12" target="66" edge="1">
                    <mxGeometry relative="1" as="geometry">
                        <mxPoint x="610" y="321.88" as="targetPoint"/>
                    </mxGeometry>
                </mxCell>
                <mxCell id="67" value="STAGE" style="whiteSpace=wrap;html=1;sketch=1;curveFitting=1;jiggle=2;labelBackgroundColor=none;fontSize=16;fontStyle=1;fillColor=#647687;strokeColor=#314354;strokeWidth=4;fontColor=#ffffff;" parent="95" vertex="1">
                    <mxGeometry x="610" y="178.13" width="120" height="60" as="geometry"/>
                </mxCell>
                <mxCell id="68" value="PROD" style="whiteSpace=wrap;html=1;sketch=1;curveFitting=1;jiggle=2;labelBackgroundColor=none;fontSize=16;fontStyle=1;fillColor=#647687;strokeColor=#314354;strokeWidth=4;fontColor=#ffffff;" parent="95" vertex="1">
                    <mxGeometry x="610" y="58.129999999999995" width="120" height="60" as="geometry"/>
                </mxCell>
                <mxCell id="64" value="Github Repository" style="dashed=0;outlineConnect=0;html=1;align=center;labelPosition=center;verticalLabelPosition=bottom;verticalAlign=top;shape=mxgraph.weblogos.github;fontColor=#FFFFFF;labelBackgroundColor=none;fontSize=17;" parent="1" vertex="1">
                    <mxGeometry x="1562.5" y="640" width="75" height="75" as="geometry"/>
                </mxCell>
                <mxCell id="102" value="" style="edgeStyle=orthogonalEdgeStyle;html=1;fontColor=#FFFFFF;dashed=1;sketch=1;curveFitting=1;jiggle=2;endArrow=none;labelBackgroundColor=none;fillColor=#647687;fontSize=16;fontStyle=1;strokeColor=#314354;strokeWidth=4;" parent="1" source="95" target="64" edge="1">
                    <mxGeometry relative="1" as="geometry">
                        <mxPoint x="1600" y="620" as="sourcePoint"/>
                        <mxPoint x="1600" y="840" as="targetPoint"/>
                    </mxGeometry>
                </mxCell>
            </root>
        </mxGraphModel>
    </diagram>
</mxfile>